<svg width="69" height="96" viewBox="0 0 69 96" fill="none" xmlns="http://www.w3.org/2000/svg">
<path d="M0.966797 74L11.0303 26.7588H23.1592L21.8408 33.3506H22.1045C24.6094 29 28.8721 26.0557 34.3652 26.0557C36.8701 26.0557 38.8916 26.5391 40.3418 27.2422L37.8809 38.7559C36.2549 38.0088 33.9258 37.3496 31.377 37.3496C24.6533 37.3496 20.6104 41.1289 18.9844 48.4238L13.5352 74H0.966797ZM31.0553 74V26.8906H43.4479V35.3721H43.7115C45.3814 29.3955 49.3805 26.1436 54.9176 26.1436C56.4117 26.1436 57.6861 26.3633 58.565 26.627V37.9209C57.5104 37.4814 55.7525 37.1738 53.9068 37.1738C47.5787 37.1738 43.8873 41.041 43.8873 47.6768V74H31.0553Z" fill="#222222"/>
<circle cx="62" cy="68" r="7" fill="#FF0000"/>
</svg>
